<svg xmlns="http://www.w3.org/2000/svg" width="64" height="64" viewBox="0 0 64 64">
  <rect width="64" height="64" fill="#f5f5f5" />
  <rect x="2" y="3" width="1" height="1" fill="#1a1a1a" />
  <rect x="8" y="7" width="1" height="1" fill="#1a1a1a" />
  <rect x="12" y="14" width="1" height="1" fill="#1a1a1a" />
  <rect x="19" y="5" width="1" height="1" fill="#1a1a1a" />
  <rect x="25" y="11" width="1" height="1" fill="#1a1a1a" />
  <rect x="31" y="2" width="1" height="1" fill="#1a1a1a" />
  <rect x="37" y="8" width="1" height="1" fill="#1a1a1a" />
  <rect x="43" y="13" width="1" height="1" fill="#1a1a1a" />
  <rect x="50" y="4" width="1" height="1" fill="#1a1a1a" />
  <rect x="56" y="9" width="1" height="1" fill="#1a1a1a" />
  <rect x="61" y="15" width="1" height="1" fill="#1a1a1a" />
  <rect x="4" y="21" width="1" height="1" fill="#1a1a1a" />
  <rect x="10" y="26" width="1" height="1" fill="#1a1a1a" />
  <rect x="16" y="18" width="1" height="1" fill="#1a1a1a" />
  <rect x="22" y="24" width="1" height="1" fill="#1a1a1a" />
  <rect x="28" y="19" width="1" height="1" fill="#1a1a1a" />
  <rect x="34" y="23" width="1" height="1" fill="#1a1a1a" />
  <rect x="40" y="17" width="1" height="1" fill="#1a1a1a" />
  <rect x="46" y="25" width="1" height="1" fill="#1a1a1a" />
  <rect x="52" y="20" width="1" height="1" fill="#1a1a1a" />
  <rect x="58" y="27" width="1" height="1" fill="#1a1a1a" />
  <rect x="6" y="33" width="1" height="1" fill="#1a1a1a" />
  <rect x="13" y="38" width="1" height="1" fill="#1a1a1a" />
  <rect x="18" y="31" width="1" height="1" fill="#1a1a1a" />
  <rect x="24" y="37" width="1" height="1" fill="#1a1a1a" />
  <rect x="30" y="34" width="1" height="1" fill="#1a1a1a" />
  <rect x="36" y="40" width="1" height="1" fill="#1a1a1a" />
  <rect x="42" y="32" width="1" height="1" fill="#1a1a1a" />
  <rect x="48" y="39" width="1" height="1" fill="#1a1a1a" />
  <rect x="54" y="35" width="1" height="1" fill="#1a1a1a" />
  <rect x="60" y="41" width="1" height="1" fill="#1a1a1a" />
  <rect x="3" y="47" width="1" height="1" fill="#1a1a1a" />
  <rect x="9" y="53" width="1" height="1" fill="#1a1a1a" />
  <rect x="15" y="45" width="1" height="1" fill="#1a1a1a" />
  <rect x="21" y="50" width="1" height="1" fill="#1a1a1a" />
  <rect x="27" y="57" width="1" height="1" fill="#1a1a1a" />
  <rect x="33" y="49" width="1" height="1" fill="#1a1a1a" />
  <rect x="39" y="55" width="1" height="1" fill="#1a1a1a" />
  <rect x="45" y="46" width="1" height="1" fill="#1a1a1a" />
  <rect x="51" y="52" width="1" height="1" fill="#1a1a1a" />
  <rect x="57" y="59" width="1" height="1" fill="#1a1a1a" />
  <rect x="62" y="50" width="1" height="1" fill="#1a1a1a" />
  <rect x="5" y="61" width="1" height="1" fill="#1a1a1a" />
  <rect x="11" y="58" width="1" height="1" fill="#1a1a1a" />
  <rect x="17" y="63" width="1" height="1" fill="#1a1a1a" />
  <rect x="23" y="60" width="1" height="1" fill="#1a1a1a" />
  <rect x="29" y="62" width="1" height="1" fill="#1a1a1a" />
  <rect x="35" y="56" width="1" height="1" fill="#1a1a1a" />
  <rect x="41" y="63" width="1" height="1" fill="#1a1a1a" />
  <rect x="47" y="58" width="1" height="1" fill="#1a1a1a" />
  <rect x="53" y="62" width="1" height="1" fill="#1a1a1a" />
  <rect x="59" y="57" width="1" height="1" fill="#1a1a1a" />
</svg>
